<?xml version="1.0" encoding="UTF-8" standalone="no"?>
<svg
   xmlns:dc="http://purl.org/dc/elements/1.1/"
   xmlns:cc="http://creativecommons.org/ns#"
   xmlns:rdf="http://www.w3.org/1999/02/22-rdf-syntax-ns#"
   xmlns:svg="http://www.w3.org/2000/svg"
   xmlns="http://www.w3.org/2000/svg"
   xmlns:xlink="http://www.w3.org/1999/xlink"
   version="1.1"
   id="svg2"
   viewBox="0 0 500.00001 500.00001"
   height="500"
   width="500">
  <defs
     id="defs4">
    <linearGradient
       id="linearGradient4274">
      <stop
         id="stop4276"
         offset="0"
         style="stop-color:#deaa87;stop-opacity:1;" />
      <stop
         id="stop4278"
         offset="1"
         style="stop-color:#ffccaa;stop-opacity:1" />
    </linearGradient>
    <linearGradient
       id="linearGradient4251">
      <stop
         style="stop-color:#cccccc;stop-opacity:1;"
         offset="0"
         id="stop4253" />
      <stop
         style="stop-color:#ffffff;stop-opacity:1"
         offset="1"
         id="stop4255" />
    </linearGradient>
    <linearGradient
       id="linearGradient4243">
      <stop
         style="stop-color:#cccccc;stop-opacity:1"
         offset="0"
         id="stop4245" />
      <stop
         style="stop-color:#ffffff;stop-opacity:1"
         offset="1"
         id="stop4247" />
    </linearGradient>
    <linearGradient
       id="linearGradient4235">
      <stop
         style="stop-color:#cccccc;stop-opacity:0"
         offset="0"
         id="stop4237" />
      <stop
         style="stop-color:#000000;stop-opacity:1"
         offset="1"
         id="stop4239" />
    </linearGradient>
    <linearGradient
       id="linearGradient4223">
      <stop
         id="stop4225"
         offset="0"
         style="stop-color:#cccccc;stop-opacity:1;" />
      <stop
         id="stop4227"
         offset="1"
         style="stop-color:#808080;stop-opacity:1" />
    </linearGradient>
    <linearGradient
       id="linearGradient4215">
      <stop
         id="stop4217"
         offset="0"
         style="stop-color:#808080;stop-opacity:1" />
      <stop
         id="stop4219"
         offset="1"
         style="stop-color:#cccccc;stop-opacity:1" />
    </linearGradient>
    <linearGradient
       id="linearGradient4203">
      <stop
         id="stop4205"
         offset="0"
         style="stop-color:#3737c8;stop-opacity:1" />
      <stop
         id="stop4207"
         offset="1"
         style="stop-color:#8787de;stop-opacity:1" />
    </linearGradient>
    <linearGradient
       gradientTransform="matrix(0.88227754,0,0,0.88227754,50.363378,324.85147)"
       gradientUnits="userSpaceOnUse"
       y2="449.30115"
       x2="329.30972"
       y1="670.52454"
       x1="107.07617"
       id="linearGradient4209"
       xlink:href="#linearGradient4203" />
    <linearGradient
       gradientUnits="userSpaceOnUse"
       y2="545.93365"
       x2="355.71429"
       y1="608.79077"
       x1="30.714293"
       id="linearGradient4221"
       xlink:href="#linearGradient4215" />
    <linearGradient
       gradientUnits="userSpaceOnUse"
       y2="426.64792"
       x2="282.85715"
       y1="563.23529"
       x1="338.17828"
       id="linearGradient4229"
       xlink:href="#linearGradient4223" />
    <linearGradient
       gradientUnits="userSpaceOnUse"
       y2="504.99637"
       x2="343.26382"
       y1="613.29523"
       x1="364.68552"
       id="linearGradient4233"
       xlink:href="#linearGradient4235" />
    <linearGradient
       gradientUnits="userSpaceOnUse"
       y2="404.50507"
       x2="122.85715"
       y1="482.1217"
       x1="185.53679"
       id="linearGradient4241"
       xlink:href="#linearGradient4243" />
    <linearGradient
       gradientUnits="userSpaceOnUse"
       y2="426.64792"
       x2="467.85715"
       y1="479.98315"
       x1="378.84329"
       id="linearGradient4249"
       xlink:href="#linearGradient4251" />
    <linearGradient
       gradientTransform="matrix(0.88227754,0,0,0.88227754,48.733824,319.44074)"
       gradientUnits="userSpaceOnUse"
       y2="335.21936"
       x2="370"
       y1="719.50507"
       x1="31.428572"
       id="linearGradient4280"
       xlink:href="#linearGradient4274" />
  </defs>
  <metadata
     id="metadata7">
    <rdf:RDF>
      <cc:Work
         rdf:about="">
        <dc:format>image/svg+xml</dc:format>
        <dc:type
           rdf:resource="http://purl.org/dc/dcmitype/StillImage" />
        <dc:title></dc:title>
      </cc:Work>
    </rdf:RDF>
  </metadata>
  <g
     transform="translate(0,-552.36216)"
     id="layer1">
    <rect
       ry="180.02945"
       y="552.36218"
       x="0"
       height="500"
       width="500"
       id="rect4213"
       style="opacity:1;fill:url(#linearGradient4280);fill-opacity:1;stroke:#1a1a1a;stroke-width:0;stroke-linecap:round;stroke-linejoin:round;stroke-miterlimit:4;stroke-dasharray:none;stroke-dashoffset:0;stroke-opacity:1" />
    <circle
       r="166.66093"
       cy="802.36218"
       cx="250"
       id="path4195"
       style="opacity:1;fill:url(#linearGradient4209);fill-opacity:1;stroke:#1a1a1a;stroke-width:0;stroke-linecap:round;stroke-linejoin:round;stroke-miterlimit:4;stroke-dasharray:none;stroke-dashoffset:0;stroke-opacity:1" />
    <g
       transform="matrix(0.88227754,0,0,0.88227754,43.165272,326.75889)"
       id="g4257">
      <path
         id="path4193"
         d="M 87.039122,471.04072 C 121.88091,502.51891 194.4956,554.25944 203.66294,576.084 c 3.18325,7.57833 13.12223,8.09283 13.12223,8.09283 -14.73627,-44.25367 11.15572,-42.80055 33.18728,-45.6904 0,0 15.6512,-50.83631 12.68458,-72.80893 -7.50193,-55.56398 -82.92699,-97.36104 -123.01048,-91.94919 -40.083468,5.41185 -94.210888,59.72534 -52.607428,97.31241 z"
         style="opacity:1;fill:url(#linearGradient4241);fill-opacity:1;stroke:#1a1a1a;stroke-width:0;stroke-linecap:round;stroke-linejoin:round;stroke-miterlimit:4;stroke-dasharray:none;stroke-dashoffset:0;stroke-opacity:1" />
      <path
         style="opacity:1;fill:url(#linearGradient4221);fill-opacity:1;stroke:none;stroke-width:0;stroke-linecap:round;stroke-linejoin:round;stroke-miterlimit:4;stroke-dasharray:none;stroke-dashoffset:0;stroke-opacity:1"
         d="m 249.27344,472.07227 c -71.72131,-0.21322 -115.12534,20.20414 -106.43164,125.54687 -14.74467,2.18585 -29.30799,3.45021 -43.537112,2.98438 -18.501256,-0.56843 -36.838413,-3.93796 -53.78711,-10.42969 -20.100694,-7.55465 -38.859689,-19.7011 -55.9375,-34.23047 l -26.486328,30.92187 c 19.845041,17.09584 42.6052898,31.61879 67.939453,41.35938 21.589844,8.17834 44.355125,12.42845 67.072266,13.07422 21.852551,0.58475 43.168571,-1.77112 63.648441,-5.50391 19.87697,-3.59123 39.04154,-8.26859 57.77734,-12.71875 l 171.21119,0.002 c 33.58258,-59.51205 19.92567,-98.8201 26.40014,-142.14425 -63.47882,0 -121.57005,-8.72369 -167.86914,-8.86132 z m -15.16992,79.75976 c 9.06502,5.1e-4 16.41355,7.34904 16.41406,16.41406 5.7e-4,9.06579 -7.34827,16.41551 -16.41406,16.41602 -9.06656,5.7e-4 -16.41659,-7.34946 -16.41602,-16.41602 5.1e-4,-9.06579 7.35023,-16.41463 16.41602,-16.41406 z"
         id="rect4175" />
      <path
         style="opacity:1;fill:url(#linearGradient4249);fill-opacity:1;stroke:#1a1a1a;stroke-width:0;stroke-linecap:round;stroke-linejoin:round;stroke-miterlimit:4;stroke-dasharray:none;stroke-dashoffset:0;stroke-opacity:1"
         d="m 480.54729,497.15757 c -42.56155,19.83284 -127.18584,47.91673 -142.36902,66.07774 -25.94302,31.03116 -47.41546,-71.98053 -23.89647,-122.8774 23.51901,-50.89687 107.90348,-68.65055 144.62015,-51.68409 36.71665,16.96644 72.46671,84.80202 21.64534,108.48375 z"
         id="path4190" />
      <path
         style="fill:url(#linearGradient4233);fill-opacity:1;fill-rule:evenodd;stroke:none;stroke-width:1px;stroke-linecap:butt;stroke-linejoin:miter;stroke-opacity:1"
         d="m 258.68484,556.59992 121.22001,-17.57146 34.5312,-14.46946 c 3.98821,31.11488 -11.91653,73.04758 -23.6932,98.51811 l -101.0036,-9.51152 -29.23653,-32.37212 c 5.78697,-24.65882 -0.27577,-2.56635 -1.81788,-24.59355 z"
         id="path4231" />
      <path
         style="opacity:1;fill:url(#linearGradient4229);fill-opacity:1;stroke:none;stroke-width:0;stroke-linecap:round;stroke-linejoin:round;stroke-miterlimit:4;stroke-dasharray:none;stroke-dashoffset:0;stroke-opacity:1"
         d="m 391.29671,507.63748 c 0,38.07612 -62.57354,88.13581 -100.51019,88.13581 -37.93664,0 -31.8198,-18.74496 -31.8198,-56.82108 0,-38.07611 1.96438,-83.08504 39.90102,-83.08504 37.93665,0 92.42897,13.69419 92.42897,51.77031 z"
         id="path4180" />
      <text
         xml:space="preserve"
         style="font-style:normal;font-variant:normal;font-weight:normal;font-stretch:normal;font-size:119.8454895px;line-height:100%;font-family:Ubuntu;-inkscape-font-specification:Ubuntu;letter-spacing:0px;word-spacing:0px;fill:#ffffff;fill-opacity:1;stroke:none;stroke-width:1px;stroke-linecap:butt;stroke-linejoin:miter;stroke-opacity:1"
         x="128.25655"
         y="704.86969"
         id="text4136"><tspan
           id="tspan4138"
           x="128.25655"
           y="704.86969">PHP</tspan></text>
    </g>
  </g>
</svg>
